<svg xmlns="http://www.w3.org/2000/svg" width="311.143" height="62.05" viewBox="0 0 311.143 62.05">
  <defs>
    <style>
      .cls-1 {
        fill: #666;
      }

      .cls-2 {
        fill: #2a3f55;
      }

      .cls-3 {
        fill: #2acb55;
      }
    </style>
  </defs>
  <g id="Symbol_95_1" data-name="Symbol 95 – 1" transform="translate(-140 -29)">
    <g id="Group_1068" data-name="Group 1068" transform="translate(-51)">
      <g id="Group_99" data-name="Group 99" transform="translate(-26 -38)">
        <g id="Group_101" data-name="Group 101" transform="translate(217 67)">
          <g id="Group_100" data-name="Group 100" transform="translate(151.051 44.95)">
            <g id="Group_99-2" data-name="Group 99">
              <path id="Path_212" data-name="Path 212" class="cls-1" d="M289.2,99.7V86.49h1.75V99.7H289.2Z" transform="translate(-289.2 -86.265)"/>
              <path id="Path_213" data-name="Path 213" class="cls-1" d="M298.05,102.828V93.26h1.462v1.358a3.425,3.425,0,0,1,3.045-1.588,4.006,4.006,0,0,1,1.588.313,2.457,2.457,0,0,1,1.086.82,2.975,2.975,0,0,1,.5,1.2,8.283,8.283,0,0,1,.1,1.572v5.892H304.2V96.994a4.35,4.35,0,0,0-.188-1.473,1.565,1.565,0,0,0-.674-.789,2.127,2.127,0,0,0-1.139-.3,2.581,2.581,0,0,0-1.781.663,3.253,3.253,0,0,0-.752,2.5v5.223H298.05Z" transform="translate(-293.428 -89.39)"/>
              <path id="Path_214" data-name="Path 214" class="cls-1" d="M316.46,99.961l1.609-.251a2.183,2.183,0,0,0,.742,1.478,2.638,2.638,0,0,0,1.724.507,2.543,2.543,0,0,0,1.661-.454,1.363,1.363,0,0,0,.543-1.071,1.008,1.008,0,0,0-.481-.867,7.05,7.05,0,0,0-1.661-.543,15.675,15.675,0,0,1-2.47-.778,2.364,2.364,0,0,1-1.045-.914,2.431,2.431,0,0,1-.35-1.28,2.507,2.507,0,0,1,.287-1.191,2.673,2.673,0,0,1,.794-.914,3.422,3.422,0,0,1,1.034-.47,4.9,4.9,0,0,1,1.41-.193,5.42,5.42,0,0,1,1.969.329,2.743,2.743,0,0,1,1.259.877,3.4,3.4,0,0,1,.559,1.489l-1.588.214a1.755,1.755,0,0,0-.632-1.16,2.272,2.272,0,0,0-1.457-.413,2.665,2.665,0,0,0-1.6.371,1.081,1.081,0,0,0-.481.862.893.893,0,0,0,.2.58,1.587,1.587,0,0,0,.616.428c.167.057.648.2,1.436.413a18.5,18.5,0,0,1,2.4.752,2.464,2.464,0,0,1,1.071.857,2.369,2.369,0,0,1,.392,1.389,2.685,2.685,0,0,1-.481,1.52,3.072,3.072,0,0,1-1.363,1.107,4.949,4.949,0,0,1-2.021.392,4.465,4.465,0,0,1-2.836-.773A3.6,3.6,0,0,1,316.46,99.961Z" transform="translate(-302.222 -89.385)"/>
              <path id="Path_215" data-name="Path 215" class="cls-1" d="M341.6,103.039v-1.41a3.51,3.51,0,0,1-3.035,1.624,3.923,3.923,0,0,1-1.588-.324,2.6,2.6,0,0,1-1.086-.81,3,3,0,0,1-.5-1.207,8.027,8.027,0,0,1-.1-1.509V93.47h1.624v5.3a9.329,9.329,0,0,0,.1,1.713,1.685,1.685,0,0,0,.642,1.008,2.009,2.009,0,0,0,1.222.366,2.674,2.674,0,0,0,1.374-.371,2.034,2.034,0,0,0,.9-1.018,5.139,5.139,0,0,0,.261-1.87V93.47h1.624v9.563H341.6Z" transform="translate(-311.222 -89.6)"/>
              <path id="Path_216" data-name="Path 216" class="cls-1" d="M354.99,102.828V93.26h1.457v1.447a4.093,4.093,0,0,1,1.039-1.348,1.764,1.764,0,0,1,1.034-.329,3.119,3.119,0,0,1,1.661.528l-.554,1.509a2.313,2.313,0,0,0-1.2-.355,1.561,1.561,0,0,0-.951.313,1.7,1.7,0,0,0-.6.893A6.134,6.134,0,0,0,356.6,97.8v5.009H354.99Z" transform="translate(-320.627 -89.39)"/>
              <path id="Path_217" data-name="Path 217" class="cls-1" d="M372.53,101.643a6.1,6.1,0,0,1-1.739,1.081,5.018,5.018,0,0,1-1.786.313,3.5,3.5,0,0,1-2.423-.768,2.535,2.535,0,0,1-.851-1.964,2.643,2.643,0,0,1,.324-1.29,2.591,2.591,0,0,1,.836-.935,3.786,3.786,0,0,1,1.17-.528,11.941,11.941,0,0,1,1.436-.24,14.98,14.98,0,0,0,2.894-.564c.01-.219.01-.355.01-.413a1.79,1.79,0,0,0-.465-1.4,2.668,2.668,0,0,0-1.839-.554,2.886,2.886,0,0,0-1.692.4,2.463,2.463,0,0,0-.815,1.421l-1.583-.214a3.934,3.934,0,0,1,.71-1.65,3.157,3.157,0,0,1,1.436-.971,6.412,6.412,0,0,1,2.173-.34,5.848,5.848,0,0,1,2,.287,2.694,2.694,0,0,1,1.128.731,2.433,2.433,0,0,1,.5,1.107,9.647,9.647,0,0,1,.073,1.5v2.152a23.114,23.114,0,0,0,.1,2.862,3.959,3.959,0,0,0,.407,1.154h-1.687A3.825,3.825,0,0,1,372.53,101.643Zm-.136-3.625a11.436,11.436,0,0,1-2.643.616,6.593,6.593,0,0,0-1.421.324,1.422,1.422,0,0,0-.642.522,1.426,1.426,0,0,0,.272,1.849,2.1,2.1,0,0,0,1.442.434,3.345,3.345,0,0,0,1.661-.407,2.528,2.528,0,0,0,1.071-1.113,3.876,3.876,0,0,0,.266-1.624v-.6Z" transform="translate(-325.758 -89.39)"/>
              <path id="Path_218" data-name="Path 218" class="cls-1" d="M386.46,102.828V93.26h1.457v1.358a3.426,3.426,0,0,1,3.045-1.588,4.006,4.006,0,0,1,1.588.313,2.5,2.5,0,0,1,1.092.82,3.05,3.05,0,0,1,.5,1.2,8.28,8.28,0,0,1,.1,1.572v5.892h-1.624V96.994a4.351,4.351,0,0,0-.188-1.473,1.565,1.565,0,0,0-.674-.789,2.14,2.14,0,0,0-1.139-.3,2.59,2.59,0,0,0-1.781.663,3.253,3.253,0,0,0-.747,2.5v5.223H386.46Z" transform="translate(-335.66 -89.39)"/>
              <path id="Path_219" data-name="Path 219" class="cls-1" d="M411.908,99.309l1.6.214a4.131,4.131,0,0,1-1.342,2.58,3.912,3.912,0,0,1-2.648.93,4.114,4.114,0,0,1-3.16-1.285,5.186,5.186,0,0,1-1.2-3.677,6.648,6.648,0,0,1,.517-2.716,3.64,3.64,0,0,1,1.567-1.75,4.6,4.6,0,0,1,2.288-.585,3.953,3.953,0,0,1,2.549.794,3.616,3.616,0,0,1,1.264,2.241l-1.572.24a2.653,2.653,0,0,0-.8-1.447,2.037,2.037,0,0,0-1.379-.491,2.5,2.5,0,0,0-2,.883,4.2,4.2,0,0,0-.763,2.784,4.318,4.318,0,0,0,.736,2.8,2.394,2.394,0,0,0,1.933.872,2.255,2.255,0,0,0,1.593-.585A2.936,2.936,0,0,0,411.908,99.309Z" transform="translate(-344.593 -89.385)"/>
              <path id="Path_220" data-name="Path 220" class="cls-1" d="M429.838,99.742l1.671.214a4.056,4.056,0,0,1-1.468,2.272,4.434,4.434,0,0,1-2.737.81,4.363,4.363,0,0,1-3.327-1.29,5.063,5.063,0,0,1-1.227-3.635,5.285,5.285,0,0,1,1.243-3.75,4.2,4.2,0,0,1,3.228-1.332,4.081,4.081,0,0,1,3.134,1.311,5.184,5.184,0,0,1,1.222,3.677c0,.1-.005.245-.01.439h-7.135a3.645,3.645,0,0,0,.888,2.408,2.653,2.653,0,0,0,2.006.836,2.458,2.458,0,0,0,1.52-.465A3.03,3.03,0,0,0,429.838,99.742Zm-5.322-2.617h5.348a3.271,3.271,0,0,0-.616-1.812,2.49,2.49,0,0,0-2.016-.945,2.584,2.584,0,0,0-1.88.747A2.948,2.948,0,0,0,424.515,97.125Z" transform="translate(-352.996 -89.39)"/>
              <path id="Path_221" data-name="Path 221" class="cls-1" d="M452.01,99.961l1.609-.251a2.205,2.205,0,0,0,.742,1.478,2.638,2.638,0,0,0,1.724.507,2.543,2.543,0,0,0,1.661-.454,1.363,1.363,0,0,0,.543-1.071,1.008,1.008,0,0,0-.481-.867,7.051,7.051,0,0,0-1.661-.543,15.375,15.375,0,0,1-2.465-.778,2.363,2.363,0,0,1-1.045-.914,2.435,2.435,0,0,1-.355-1.28,2.512,2.512,0,0,1,.292-1.191,2.672,2.672,0,0,1,.794-.914,3.423,3.423,0,0,1,1.034-.47,4.922,4.922,0,0,1,1.41-.193,5.42,5.42,0,0,1,1.969.329,2.771,2.771,0,0,1,1.259.877,3.4,3.4,0,0,1,.559,1.489l-1.583.214a1.755,1.755,0,0,0-.632-1.16,2.272,2.272,0,0,0-1.457-.413,2.665,2.665,0,0,0-1.6.371,1.081,1.081,0,0,0-.481.862.893.893,0,0,0,.2.58,1.587,1.587,0,0,0,.616.428c.167.057.648.2,1.436.413a18.777,18.777,0,0,1,2.4.752,2.464,2.464,0,0,1,1.071.857,2.369,2.369,0,0,1,.392,1.389,2.685,2.685,0,0,1-.481,1.52,3.072,3.072,0,0,1-1.363,1.107,4.949,4.949,0,0,1-2.021.392,4.492,4.492,0,0,1-2.841-.773A3.583,3.583,0,0,1,452.01,99.961Z" transform="translate(-366.973 -89.385)"/>
              <path id="Path_222" data-name="Path 222" class="cls-1" d="M470.93,88.355V86.48h1.624v1.875Zm0,11.344V90.131h1.624v9.563H470.93Z" transform="translate(-376.011 -86.261)"/>
              <path id="Path_223" data-name="Path 223" class="cls-1" d="M478.78,102.828V93.26h1.447v1.332a3.473,3.473,0,0,1,1.2-1.133,3.327,3.327,0,0,1,1.692-.428,3.129,3.129,0,0,1,1.75.449,2.353,2.353,0,0,1,.956,1.243,3.451,3.451,0,0,1,2.956-1.687,2.905,2.905,0,0,1,2.188.794,3.371,3.371,0,0,1,.768,2.429v6.571H490.13V96.8a4.469,4.469,0,0,0-.157-1.4,1.342,1.342,0,0,0-.575-.689,1.783,1.783,0,0,0-.982-.266,2.268,2.268,0,0,0-1.677.674,2.961,2.961,0,0,0-.669,2.147v5.563h-1.624V96.608a2.729,2.729,0,0,0-.4-1.624,1.5,1.5,0,0,0-1.29-.543,2.358,2.358,0,0,0-1.269.36,2.021,2.021,0,0,0-.836,1.055,5.974,5.974,0,0,0-.261,2v4.972H478.78Z" transform="translate(-379.761 -89.39)"/>
              <path id="Path_224" data-name="Path 224" class="cls-1" d="M508.21,106.49V93.26h1.473v1.233a3.767,3.767,0,0,1,1.186-1.1,3.257,3.257,0,0,1,1.6-.366,3.747,3.747,0,0,1,2.157.637,3.9,3.9,0,0,1,1.415,1.781,6.873,6.873,0,0,1-.047,5.166,4,4,0,0,1-3.651,2.424,3.024,3.024,0,0,1-1.452-.34,3.079,3.079,0,0,1-1.05-.867v4.659Zm1.457-8.4a4.15,4.15,0,0,0,.752,2.732,2.32,2.32,0,0,0,3.667-.031,4.359,4.359,0,0,0,.768-2.836,4.194,4.194,0,0,0-.757-2.737,2.275,2.275,0,0,0-1.8-.914,2.337,2.337,0,0,0-1.833.971A4.348,4.348,0,0,0,509.667,98.091Z" transform="translate(-393.82 -89.39)"/>
              <path id="Path_225" data-name="Path 225" class="cls-1" d="M527.8,99.7V86.49h1.624V99.7H527.8Z" transform="translate(-403.178 -86.265)"/>
              <path id="Path_226" data-name="Path 226" class="cls-1" d="M535.73,88.355V86.48h1.624v1.875Zm0,11.344V90.131h1.624v9.563H535.73Z" transform="translate(-406.966 -86.261)"/>
              <path id="Path_227" data-name="Path 227" class="cls-1" d="M543.011,99.5v-8.3H541.59V89.936h1.421V88.917a4.272,4.272,0,0,1,.178-1.436,2.131,2.131,0,0,1,.825-1.024,2.917,2.917,0,0,1,1.656-.4,7.8,7.8,0,0,1,1.51.162l-.24,1.421a5.661,5.661,0,0,0-.956-.089,1.419,1.419,0,0,0-1.045.313,1.721,1.721,0,0,0-.3,1.17v.893H546.5v1.259h-1.865v8.3h-1.624Z" transform="translate(-409.765 -86.06)"/>
              <path id="Path_228" data-name="Path 228" class="cls-1" d="M553.39,88.355V86.48h1.624v1.875Zm0,11.344V90.131h1.624v9.563H553.39Z" transform="translate(-415.402 -86.261)"/>
              <path id="Path_229" data-name="Path 229" class="cls-1" d="M567.3,99.742l1.671.214a4.055,4.055,0,0,1-1.468,2.272,4.434,4.434,0,0,1-2.737.81,4.363,4.363,0,0,1-3.327-1.29,5.063,5.063,0,0,1-1.227-3.635,5.285,5.285,0,0,1,1.243-3.75,4.2,4.2,0,0,1,3.228-1.332,4.081,4.081,0,0,1,3.134,1.311,5.184,5.184,0,0,1,1.222,3.677q0,.149-.016.439h-7.135a3.644,3.644,0,0,0,.888,2.408,2.653,2.653,0,0,0,2.006.836,2.484,2.484,0,0,0,1.525-.465A3.066,3.066,0,0,0,567.3,99.742Zm-5.328-2.617h5.348a3.312,3.312,0,0,0-.616-1.812,2.49,2.49,0,0,0-2.016-.945,2.584,2.584,0,0,0-1.88.747A3,3,0,0,0,561.97,97.125Z" transform="translate(-418.66 -89.39)"/>
              <path id="Path_230" data-name="Path 230" class="cls-1" d="M586.58,99.7V98.493a2.983,2.983,0,0,1-2.679,1.421,3.715,3.715,0,0,1-2.1-.632,4.139,4.139,0,0,1-1.483-1.76,6.105,6.105,0,0,1-.528-2.591,6.853,6.853,0,0,1,.48-2.606,3.808,3.808,0,0,1,1.436-1.8,3.862,3.862,0,0,1,2.141-.622,3.177,3.177,0,0,1,1.536.366,3.1,3.1,0,0,1,1.1.956V86.48H588.1V99.694H586.58Zm-5.119-4.774a4.12,4.12,0,0,0,.773,2.742,2.327,2.327,0,0,0,1.828.9,2.288,2.288,0,0,0,1.8-.867,4,4,0,0,0,.742-2.653,4.491,4.491,0,0,0-.757-2.883,2.321,2.321,0,0,0-1.859-.919,2.247,2.247,0,0,0-1.807.883A4.4,4.4,0,0,0,581.461,94.926Z" transform="translate(-428.013 -86.261)"/>
            </g>
          </g>
          <path id="Path_231" data-name="Path 231" class="cls-2" d="M97.086,32.154l6.116,7.9H95.29l-3.108-4a18.548,18.548,0,0,1-21.733-3.348,18.111,18.111,0,0,1-5.239-13A18.242,18.242,0,0,1,74.35,3.766,17.9,17.9,0,0,1,83.512,1.28a17.465,17.465,0,0,1,12.844,5.4,17.949,17.949,0,0,1,5.364,13.157A17.865,17.865,0,0,1,97.086,32.154Zm-4.178-5.4a12.207,12.207,0,0,0,2.126-6.973A11.746,11.746,0,0,0,91.665,11.3a10.912,10.912,0,0,0-8.148-3.484,11.081,11.081,0,0,0-8.247,3.39,11.809,11.809,0,0,0-3.322,8.618,11.218,11.218,0,0,0,4.184,9.213,11.518,11.518,0,0,0,7.438,2.653,10.993,10.993,0,0,0,4.5-.935l-6.294-8.085h7.976Z" transform="translate(-31.15 -0.611)"/>
          <path id="Path_232" data-name="Path 232" class="cls-2" d="M145.755,20.48h6.592V32.989a17.347,17.347,0,0,0,.5,5.072,4.441,4.441,0,0,0,1.614,2.209,4.645,4.645,0,0,0,2.742.789,4.78,4.78,0,0,0,2.763-.778A4.554,4.554,0,0,0,161.654,38a17.452,17.452,0,0,0,.407-4.8V20.48h6.518V31.49q0,6.808-1.076,9.313a10.149,10.149,0,0,1-3.87,4.69,11.825,11.825,0,0,1-6.5,1.635,11.492,11.492,0,0,1-6.91-1.912,10.076,10.076,0,0,1-3.714-5.322q-.768-2.366-.763-8.6V20.48Z" transform="translate(-69.624 -9.783)"/>
          <path id="Path_233" data-name="Path 233" class="cls-2" d="M203.077,0a3.98,3.98,0,0,1,2.941,1.243,4.127,4.127,0,0,1,1.227,3.008,4.1,4.1,0,0,1-1.212,2.972,3.938,3.938,0,0,1-2.9,1.233A3.983,3.983,0,0,1,200.167,7.2a4.181,4.181,0,0,1-1.227-3.045,3.987,3.987,0,0,1,1.217-2.935A3.94,3.94,0,0,1,203.077,0Zm-3.259,10.7h6.518v25.98h-6.518Z" transform="translate(-95.032)"/>
          <path id="Path_234" data-name="Path 234" class="cls-2" d="M248.71,25.128l-5.427,2.982a8.056,8.056,0,0,0-6.524-2.841,8.165,8.165,0,0,0-5.918,2.178,7.446,7.446,0,0,0-2.262,5.594,7.181,7.181,0,0,0,2.178,5.411,7.881,7.881,0,0,0,5.714,2.1,8.319,8.319,0,0,0,6.816-2.982l5.139,3.52q-4.176,5.437-11.794,5.432-6.855,0-10.733-4.058a13.5,13.5,0,0,1,3.27-21.441,15.694,15.694,0,0,1,7.558-1.812,15.281,15.281,0,0,1,6.947,1.541A13.135,13.135,0,0,1,248.71,25.128Z" transform="translate(-106.058 -9.176)"/>
          <path id="Path_235" data-name="Path 235" class="cls-3" d="M339.747,0a3.972,3.972,0,0,1,2.941,1.243,4.106,4.106,0,0,1,1.227,3.008A4.081,4.081,0,0,1,342.7,7.223a3.938,3.938,0,0,1-2.9,1.233A4,4,0,0,1,336.827,7.2,4.181,4.181,0,0,1,335.6,4.158a4,4,0,0,1,1.212-2.935A4.008,4.008,0,0,1,339.747,0Zm-3.259,10.7h6.518v25.98h-6.518Z" transform="translate(-160.314)"/>
          <path id="Path_236" data-name="Path 236" class="cls-3" d="M361.12,19.869h6.518v2.664a15.806,15.806,0,0,1,4.017-2.6,9.745,9.745,0,0,1,3.682-.731,8.92,8.92,0,0,1,6.555,2.7q2.264,2.3,2.267,6.78V45.843h-6.445V34.472A28.76,28.76,0,0,0,377.3,28.3a4.225,4.225,0,0,0-1.452-2.324,4.067,4.067,0,0,0-2.559-.8A4.793,4.793,0,0,0,369.89,26.5a7.071,7.071,0,0,0-1.964,3.661,29.211,29.211,0,0,0-.287,5.27v10.42H361.12Z" transform="translate(-172.505 -9.172)"/>
          <path id="Path_237" data-name="Path 237" class="cls-3" d="M431.317,23.513,427.28,27.55q-2.46-2.437-4.466-2.434a2.822,2.822,0,0,0-1.718.465,1.406,1.406,0,0,0-.622,1.16,1.423,1.423,0,0,0,.392.966,7.276,7.276,0,0,0,1.943,1.207l2.387,1.2a14.066,14.066,0,0,1,5.181,3.8,7.905,7.905,0,0,1-1.133,10.316,9.731,9.731,0,0,1-6.816,2.314,10.851,10.851,0,0,1-9.078-4.44l4.011-4.372a9.244,9.244,0,0,0,2.685,2.162,5.949,5.949,0,0,0,2.732.825,3.242,3.242,0,0,0,2.079-.622,1.8,1.8,0,0,0,.789-1.431q0-1.5-2.841-2.935l-2.194-1.1q-6.307-3.173-6.3-7.95a6.906,6.906,0,0,1,2.376-5.265,8.618,8.618,0,0,1,6.074-2.183,10.6,10.6,0,0,1,4.763,1.107A10.32,10.32,0,0,1,431.317,23.513Z" transform="translate(-197.455 -9.186)"/>
          <path id="Path_238" data-name="Path 238" class="cls-3" d="M458.45,20.48h6.591V32.989a17.348,17.348,0,0,0,.5,5.072,4.481,4.481,0,0,0,1.619,2.209,4.645,4.645,0,0,0,2.742.789,4.78,4.78,0,0,0,2.763-.778A4.554,4.554,0,0,0,474.354,38a17.453,17.453,0,0,0,.407-4.8V20.48h6.518V31.49q0,6.808-1.076,9.313a10.118,10.118,0,0,1-3.87,4.69,11.818,11.818,0,0,1-6.492,1.635,11.52,11.52,0,0,1-6.915-1.912,10.076,10.076,0,0,1-3.714-5.322q-.768-2.366-.763-8.6Z" transform="translate(-218.999 -9.783)"/>
          <path id="Path_239" data-name="Path 239" class="cls-3" d="M511.75,19.869h5.589v3.27a6.981,6.981,0,0,1,2.413-2.935,5.816,5.816,0,0,1,3.3-1,6.125,6.125,0,0,1,2.648.669l-2.032,5.61a4.5,4.5,0,0,0-1.886-.575,2.989,2.989,0,0,0-2.544,1.865q-1.042,1.865-1.039,7.307l.026,1.264V45.848H511.75Z" transform="translate(-244.46 -9.172)"/>
          <path id="Path_240" data-name="Path 240" class="cls-3" d="M569.519,34.749H548.579A6.964,6.964,0,0,0,551,39.157a7.59,7.59,0,0,0,5.025,1.635,8.689,8.689,0,0,0,6.278-2.554l5.489,2.58a12.929,12.929,0,0,1-4.92,4.309,15.336,15.336,0,0,1-6.806,1.395,13.445,13.445,0,0,1-9.955-3.855,13.109,13.109,0,0,1-3.844-9.657,13.541,13.541,0,0,1,3.834-9.872,12.872,12.872,0,0,1,9.61-3.928,13.36,13.36,0,0,1,9.981,3.928,14.18,14.18,0,0,1,3.844,10.373ZM563,29.614a6.541,6.541,0,0,0-2.549-3.536,7.374,7.374,0,0,0-4.414-1.358,7.814,7.814,0,0,0-4.784,1.53,8.56,8.56,0,0,0-2.392,3.364H563Z" transform="translate(-259.039 -9.176)"/>
          <path id="Path_241" data-name="Path 241" class="cls-3" d="M36.538,30.742c.225-1.05.481-2.042.757-2.982H14.93l20.621,7.709Z" transform="translate(-7.132 -13.261)"/>
          <path id="Path_242" data-name="Path 242" class="cls-3" d="M39.136,4H0L30.665,14.869C32.566,9.479,35.449,6.084,39.136,4Z" transform="translate(0 -1.911)"/>
          <path id="Path_243" data-name="Path 243" class="cls-2" d="M287.035,23.828l3.943-4.377V1.28H284.46V37.288h6.518V28.142Z" transform="translate(-135.885 -0.611)"/>
          <path id="Path_244" data-name="Path 244" class="cls-2" d="M302.649,33.146,313.931,20.59h-8.252L294.47,33.042,296,34.718v-.005l11.125,12.07h8.158Z" transform="translate(-140.666 -9.836)"/>
        </g>
      </g>
    </g>
  </g>
</svg>
